<?xml version="1.0" encoding="UTF-8" standalone="no"?>
<!-- Created with Inkscape (http://www.inkscape.org/) -->

<svg
   xmlns:dc="http://purl.org/dc/elements/1.1/"
   xmlns:cc="http://creativecommons.org/ns#"
   xmlns:rdf="http://www.w3.org/1999/02/22-rdf-syntax-ns#"
   xmlns:svg="http://www.w3.org/2000/svg"
   xmlns="http://www.w3.org/2000/svg"
   xmlns:sodipodi="http://sodipodi.sourceforge.net/DTD/sodipodi-0.dtd"
   xmlns:inkscape="http://www.inkscape.org/namespaces/inkscape"
   width="200"
   height="200"
   viewBox="0 0 199.99999 199.99999"
   id="svg2"
   version="1.1"
   inkscape:version="0.91 r13725"
   sodipodi:docname="logoSource.svg"
   inkscape:export-filename="/Users/c0234036/projects/postman-util-lib/imgs/logo.png"
   inkscape:export-xdpi="90"
   inkscape:export-ydpi="90">
  <defs
     id="defs4" />
  <sodipodi:namedview
     id="base"
     pagecolor="#7d7d7d"
     bordercolor="#666666"
     borderopacity="1.0"
     inkscape:pageopacity="0"
     inkscape:pageshadow="2"
     inkscape:zoom="1.979899"
     inkscape:cx="148.32247"
     inkscape:cy="57.052154"
     inkscape:document-units="px"
     inkscape:current-layer="layer1"
     showgrid="false"
     units="px"
     inkscape:window-width="1440"
     inkscape:window-height="803"
     inkscape:window-x="0"
     inkscape:window-y="1"
     inkscape:window-maximized="1" />
  <metadata
     id="metadata7">
    <rdf:RDF>
      <cc:Work
         rdf:about="">
        <dc:format>image/svg+xml</dc:format>
        <dc:type
           rdf:resource="http://purl.org/dc/dcmitype/StillImage" />
        <dc:title />
      </cc:Work>
    </rdf:RDF>
  </metadata>
  <g
     inkscape:label="Layer 1"
     inkscape:groupmode="layer"
     id="layer1"
     transform="translate(0,-852.36225)">
    <path
       d="m 88.548941,979.76569 1.807795,-3.69776 3.944279,1.10933 1.807795,-3.69776 3.98537,1.10933 1.80779,-3.69777 3.98537,1.10933 1.80779,-3.69776 3.98537,1.10933 1.80779,-3.69776 3.98537,1.10932 1.80779,-3.69776 3.98537,1.10933 1.80779,-3.69776 3.98537,1.10933 1.8078,-3.69776 3.98536,1.10932 1.8078,-3.69776 3.98536,1.10933 1.8078,-3.69776 3.98536,1.10933 1.8078,-3.69777 -2.383,-3.20472 c -2.91713,-3.94428 -8.17617,-5.34121 -12.65457,-3.32799 l -52.508222,23.66568 7.847473,12.44913 z"
       class="st4"
       id="XMLID_16_"
       inkscape:connector-curvature="0"
       style="fill:#d2dde1" />
    <path
       d="m 88.548941,979.76569 1.807795,-3.69776 3.944279,1.10933 1.807795,-3.69776 3.98537,1.10933 1.80779,-3.69777 3.98537,1.10933 1.80779,-3.69776 3.98537,1.10933 1.80779,-3.69776 3.98537,1.10932 1.80779,-3.69776 3.98537,1.10933 1.80779,-3.69776 3.98537,1.10933 1.8078,-3.69776 3.98536,1.10932 1.8078,-3.69776 3.98536,1.10933 1.8078,-3.69776 3.98536,1.10933 1.8078,-3.69777 -2.383,-3.20472 c -2.91713,-3.94428 -8.17617,-5.34121 -12.65457,-3.32799 l -52.508222,23.66568 7.847473,12.44913 z"
       class="st3"
       id="XMLID_5_"
       inkscape:connector-curvature="0"
       style="fill:none;stroke:#474747;stroke-width:2.46517491;stroke-linecap:round;stroke-linejoin:round;stroke-miterlimit:10" />
    <path
       d="M 62.870036,994.06371 32.17861,1000.2266 6.6640506,872.90036 l 0,0 c 17.2151374,4.68384 30.5681674,18.2423 35.0876544,35.49852 l 21.118331,85.66483 z"
       class="st5"
       id="XMLID_11_"
       inkscape:connector-curvature="0"
       style="fill:#baced3" />
    <path
       d="m 78.893673,963.16685 c -4.60166,4.35514 -8.587026,1.68453 -8.504853,-1.97214 0.164345,-5.87533 3.245813,-12.03827 6.532713,-16.7221 1.931054,-2.79387 6.902489,-7.80639 9.655268,-5.62882 l 6.738144,-29.66427 -10.764596,-14.0515 -1.97214,3.36908 c -4.724918,8.13507 -8.915716,16.51667 -12.572392,25.18587 -3.697762,8.71028 -6.697058,17.66708 -9.162233,26.82931 l -11.093286,41.41494 19.392708,6.24511 c 0,0 6.409455,-6.8614 8.299422,-11.13437 5.176867,-11.75067 7.683128,-22.30983 7.683128,-22.30983 l -4.231883,-1.56128 z"
       class="st4"
       id="XMLID_13_"
       inkscape:connector-curvature="0"
       style="fill:#d2dde1" />
    <path
       d="m 78.893673,963.16685 c -4.60166,4.35514 -8.587026,1.68453 -8.504853,-1.97214 0.164345,-5.87533 3.245813,-12.03827 6.532713,-16.7221 1.931054,-2.79387 6.614886,-6.69706 9.655268,-5.62882 l 6.738144,-29.66427 -10.764596,-14.0515 -1.97214,3.36908 c -4.724918,8.13507 -8.915716,16.51667 -12.572392,25.18587 -3.697762,8.71028 -6.697058,17.66708 -9.162233,26.82931 l -11.093286,41.41494 19.392708,6.24511 c 0,0 6.409455,-6.8614 8.299422,-11.13437 5.176867,-11.75067 7.683128,-22.30983 7.683128,-22.30983 l -4.231883,-1.56128 z"
       class="st3"
       id="XMLID_7_"
       inkscape:connector-curvature="0"
       style="fill:none;stroke:#474747;stroke-width:2.46517491;stroke-linecap:round;stroke-linejoin:round;stroke-miterlimit:10" />
    <path
       d="M 15.415421,876.18726 42.409085,998.17233 62.82895,994.06371 41.710619,908.3578 C 38.053943,894.18304 28.316503,882.51455 15.415421,876.18726 Z"
       class="st6"
       id="XMLID_12_"
       inkscape:connector-curvature="0"
       style="fill:#e7eff1" />
    <path
       d="M 62.870036,994.06371 32.17861,1000.2266 6.6640506,872.90036 l 0,0 c 17.2151374,4.68384 30.5681674,18.2423 35.0876544,35.49852 l 21.118331,85.66483 z"
       class="st3"
       id="XMLID_4_"
       inkscape:connector-curvature="0"
       style="fill:none;stroke:#474747;stroke-width:2.46517491;stroke-linecap:round;stroke-linejoin:round;stroke-miterlimit:10" />
    <path
       d="m 77.619999,971.42518 5.875333,-0.20543 c 1.232588,-0.0411 2.013227,-0.94498 1.848882,-2.17757 l -0.821725,-5.83424 5.875333,-0.20544 c 1.232587,-0.0411 2.013226,-0.94498 1.848881,-2.17757 l -0.821725,-5.83424 5.875333,-0.20544 c 1.232588,-0.0411 2.013227,-0.94498 1.848882,-2.17757 l -0.821725,-5.83424 5.875332,-0.20543 c 1.23259,-0.0411 2.01323,-0.94499 1.84888,-2.17758 l -0.82172,-5.83424 5.87533,-0.20543 c 1.23259,-0.0411 2.01323,-0.94499 1.84888,-2.17758 l -0.82172,-5.83424 6.40945,-0.6163 c 1.39693,-0.12326 2.0954,-1.39693 1.52019,-2.83495 l -5.50555,-13.76389 -1.47911,11.01111 -5.6699,0.20544 c -1.35585,0.0411 -2.21866,1.06824 -2.01323,2.383 l 0.78064,5.62881 -5.6699,0.20543 c -1.355847,0.0411 -2.218659,1.06825 -2.013227,2.38301 l 0.780638,5.62881 -5.669902,0.20543 c -1.355846,0.0411 -2.218657,1.06825 -2.013226,2.38301 l 0.780639,5.62881 -5.669902,0.20543 c -1.355846,0.0411 -2.218658,1.06825 -2.013226,2.38301 l 0.780638,5.62881 -5.669902,0.20543 c -1.355846,0.0411 -2.218657,1.06825 -2.013226,2.38301 l 0.780639,5.62881 -8.011818,0.2876 -7.683129,9.16224 9.614182,8.0529 5.135781,-11.29872 z"
       class="st7"
       id="XMLID_15_"
       inkscape:connector-curvature="0"
       style="fill:#bcc6c9" />
    <path
       d="m 77.619999,971.42518 5.875333,-0.20543 c 1.232588,-0.0411 2.013227,-0.94498 1.848882,-2.17757 l -0.821725,-5.83424 5.875333,-0.20544 c 1.232587,-0.0411 2.013226,-0.94498 1.848881,-2.17757 l -0.821725,-5.83424 5.875333,-0.20544 c 1.232588,-0.0411 2.013227,-0.94498 1.848882,-2.17757 l -0.821725,-5.83424 5.875332,-0.20543 c 1.23259,-0.0411 2.01323,-0.94499 1.84888,-2.17758 l -0.82172,-5.83424 5.87533,-0.20543 c 1.23259,-0.0411 2.01323,-0.94499 1.84888,-2.17758 l -0.82172,-5.83424 6.40945,-0.6163 c 1.39693,-0.12326 2.0954,-1.39693 1.52019,-2.83495 l -5.50555,-13.76389 -1.47911,11.01111 -5.6699,0.20544 c -1.35585,0.0411 -2.21866,1.06824 -2.01323,2.383 l 0.78064,5.62881 -5.6699,0.20543 c -1.355847,0.0411 -2.218659,1.06825 -2.013227,2.38301 l 0.780638,5.62881 -5.669902,0.20543 c -1.355846,0.0411 -2.218657,1.06825 -2.013226,2.38301 l 0.780639,5.62881 -5.669902,0.20543 c -1.355846,0.0411 -2.218658,1.06825 -2.013226,2.38301 l 0.780638,5.62881 -5.669902,0.20543 c -1.355846,0.0411 -2.218657,1.06825 -2.013226,2.38301 l 0.780639,5.62881 -8.011818,0.2876 -7.683129,9.16224 9.614182,8.0529 5.135781,-11.29872 z"
       class="st3"
       id="XMLID_6_"
       inkscape:connector-curvature="0"
       style="fill:none;stroke:#474747;stroke-width:2.46517491;stroke-linecap:round;stroke-linejoin:round;stroke-miterlimit:10" />
    <path
       d="m 164.35307,1031.7809 -106.824246,0 c -15.900377,0 -28.760373,-12.86 -28.760373,-28.7604 l 0,0 c 0,-15.90037 12.859996,-28.76036 28.760373,-28.76036 l 106.824246,0 c 15.90037,0 28.76037,12.85999 28.76037,28.76036 l 0,0 c 0,15.9004 -12.86,28.7604 -28.76037,28.7604 z"
       class="st8"
       id="XMLID_8_"
       inkscape:connector-curvature="0"
       style="fill:#fd6d41;fill-opacity:1" />
    <path
       d="m 164.35307,1025.2071 -106.824246,0 c -14.749962,0 -26.911491,-11.1344 -28.554941,-25.47349 -0.123259,1.06829 -0.205432,2.17759 -0.205432,3.28689 l 0,0 c 0,15.9004 12.859996,28.7604 28.760373,28.7604 l 106.824246,0 c 15.90037,0 28.76037,-12.86 28.76037,-28.7604 l 0,0 c 0,-1.1093 -0.0822,-2.2186 -0.20543,-3.28689 -1.60237,14.33909 -13.76389,25.47349 -28.55494,25.47349 z"
       class="st9"
       id="XMLID_47_"
       inkscape:connector-curvature="0"
       style="fill:#e4613f;fill-opacity:1" />
    <path
       d="m 164.35307,974.26014 -106.824246,0 c -15.900377,0 -28.760373,12.85999 -28.760373,28.76036 l 0,0 c 0,1.0272 0.04109,2.0954 0.164345,3.0815 1.561278,-14.4213 13.763893,-25.67893 28.596028,-25.67893 l 106.824246,0 c 14.83213,0 27.03475,11.25763 28.59602,25.67893 0.12326,-1.0272 0.16435,-2.0543 0.16435,-3.0815 l 0,0 c 0,-15.85928 -12.86,-28.76036 -28.76037,-28.76036 z"
       class="st10"
       id="XMLID_46_"
       inkscape:connector-curvature="0"
       style="fill:#fd7d52;fill-opacity:1" />
    <path
       d="m 164.35307,1031.7809 -106.824246,0 c -15.900377,0 -28.760373,-12.86 -28.760373,-28.7604 l 0,0 c 0,-15.90037 12.859996,-28.76036 28.760373,-28.76036 l 106.824246,0 c 15.90037,0 28.76037,12.85999 28.76037,28.76036 l 0,0 c 0,15.9004 -12.86,28.7604 -28.76037,28.7604 z"
       class="st3"
       id="XMLID_1_"
       inkscape:connector-curvature="0"
       style="fill:none;stroke:#474747;stroke-width:2.46517491;stroke-linecap:round;stroke-linejoin:round;stroke-miterlimit:10" />
    <line
       y2="967.89178"
       x2="53.296944"
       y1="971.38409"
       x1="40.642372"
       class="st11"
       id="XMLID_14_"
       style="fill:none;stroke:#474747;stroke-width:1.23258746;stroke-linecap:round;stroke-linejoin:round;stroke-miterlimit:10" />
    <circle
       r="10.353735"
       cy="1003.0205"
       cx="59.29554"
       class="st4"
       id="XMLID_21_"
       style="fill:#d2dde1" />
    <path
       d="m 50.913939,1018.1813 c -5.341213,-2.9582 -8.956802,-8.6281 -8.956802,-15.1608 0,-3.8621 1.273673,-7.4366 3.451244,-10.35373"
       class="st12"
       id="XMLID_36_"
       inkscape:connector-curvature="0"
       style="opacity:0.2;fill:none;stroke:#474747;stroke-width:2.46517491;stroke-linecap:round;stroke-linejoin:round;stroke-miterlimit:10;enable-background:new" />
    <circle
       r="10.353735"
       cy="1003.0205"
       cx="59.29554"
       class="st3"
       id="XMLID_19_"
       style="fill:none;stroke:#474747;stroke-width:2.46517491;stroke-linecap:round;stroke-linejoin:round;stroke-miterlimit:10" />
    <path
       d="m 73.552461,924.99773 c 0,0 -6.286196,15.90037 -8.052905,24.65174"
       class="st11"
       id="XMLID_32_"
       inkscape:connector-curvature="0"
       style="fill:none;stroke:#474747;stroke-width:1.23258746;stroke-linecap:round;stroke-linejoin:round;stroke-miterlimit:10" />
    <line
       y2="1009.6354"
       x2="59.29554"
       y1="996.44672"
       x1="59.29554"
       class="st3"
       id="XMLID_27_"
       style="fill:none;stroke:#474747;stroke-width:2.46517491;stroke-linecap:round;stroke-linejoin:round;stroke-miterlimit:10" />
    <line
       y2="1003.0205"
       x2="52.680649"
       y1="1003.0205"
       x1="65.869339"
       class="st3"
       id="XMLID_24_"
       style="fill:none;stroke:#474747;stroke-width:2.46517491;stroke-linecap:round;stroke-linejoin:round;stroke-miterlimit:10" />
    <line
       y2="965.42657"
       x2="35.177906"
       y1="946.65021"
       x1="31.028193"
       class="st11"
       id="XMLID_30_"
       style="fill:none;stroke:#474747;stroke-width:1.23258746;stroke-linecap:round;stroke-linejoin:round;stroke-miterlimit:10" />
    <line
       y2="939.58331"
       x2="29.466921"
       y1="886.82861"
       x1="17.798428"
       class="st11"
       id="XMLID_20_"
       style="fill:none;stroke:#474747;stroke-width:1.23258746;stroke-linecap:round;stroke-linejoin:round;stroke-miterlimit:10" />
    <text
       xml:space="preserve"
       style="font-style:normal;font-weight:normal;font-size:27.49752235px;line-height:125%;font-family:sans-serif;letter-spacing:0px;word-spacing:0px;fill:#ffffff;fill-opacity:1;stroke:#484848;stroke-width:1.49999976;stroke-linecap:butt;stroke-linejoin:miter;stroke-miterlimit:4;stroke-dasharray:none;stroke-opacity:1"
       x="82.077049"
       y="1012.4191"
       id="text4183"
       sodipodi:linespacing="125%"><tspan
         sodipodi:role="line"
         id="tspan4185"
         x="82.077049"
         y="1012.4191"
         style="font-style:normal;font-variant:normal;font-weight:normal;font-stretch:normal;font-family:'Modern Machine';-inkscape-font-specification:'Modern Machine';fill:#ffffff;fill-opacity:1;stroke:#484848;stroke-width:1.49999976;stroke-miterlimit:4;stroke-dasharray:none;stroke-opacity:1">PMLIB</tspan></text>
  </g>
  <style
     id="style4446"
     type="text/css">
	.st0{fill:#FFFFFF;}
	.st1{fill:#474747;}
	.st2{opacity:0.15;}
	.st3{fill:none;stroke:#474747;stroke-width:6;stroke-linecap:round;stroke-linejoin:round;stroke-miterlimit:10;}
	.st4{fill:#D2DDE1;}
	.st5{fill:#BACED3;}
	.st6{fill:#E7EFF1;}
	.st7{fill:#BCC6C9;}
	.st8{fill:#9ACF8D;}
	.st9{fill:#85B578;}
	.st10{fill:#BFE8B3;}
	.st11{fill:none;stroke:#474747;stroke-width:3;stroke-linecap:round;stroke-linejoin:round;stroke-miterlimit:10;}
	
		.st12{opacity:0.2;fill:none;stroke:#474747;stroke-width:6;stroke-linecap:round;stroke-linejoin:round;stroke-miterlimit:10;enable-background:new    ;}
</style>
</svg>
